<svg xmlns="http://www.w3.org/2000/svg" width="27.714" height="29.341" viewBox="0 0 27.714 29.341">
    <path id="Icon_awesome-phone-alt" data-name="Icon awesome-phone-alt" d="M26.923,20.734l-6.062-2.751a1.253,1.253,0,0,0-1.516.4L16.66,21.851A20.691,20.691,0,0,1,7.069,11.7l3.28-2.842a1.425,1.425,0,0,0,.373-1.6L8.125.832a1.291,1.291,0,0,0-1.489-.8L1.007,1.41A1.361,1.361,0,0,0,0,2.751c0,14.7,11.253,26.591,25.116,26.591a1.317,1.317,0,0,0,1.267-1.066l1.3-5.96a1.414,1.414,0,0,0-.758-1.582Z" transform="translate(0 0)" fill="#fff"/>
</svg>
