<svg xmlns="http://www.w3.org/2000/svg" width="31.997" height="24.018" viewBox="0 0 31.997 24.018">
    <path id="Icon_zocial-email" data-name="Icon zocial-email" d="M.072,25.959V6.2q0-.034.093-.652l10.46,9.95L.2,26.645a3.2,3.2,0,0,1-.123-.686ZM1.46,4.171a1.212,1.212,0,0,1,.525-.1H30.156a1.588,1.588,0,0,1,.555.1L20.221,14.156l-1.388,1.235-2.746,2.5-2.746-2.5-1.388-1.235Zm.031,23.812,10.522-11.22,4.073,3.671,4.073-3.671,10.522,11.22a1.349,1.349,0,0,1-.525.1H1.985a1.274,1.274,0,0,1-.494-.1ZM21.547,15.494l10.429-9.95a2.259,2.259,0,0,1,.093.652V25.959a2.9,2.9,0,0,1-.093.686Z" transform="translate(-0.072 -4.068)" fill="#fff"/>
</svg>
